<svg xmlns="http://www.w3.org/2000/svg" xmlns:xlink="http://www.w3.org/1999/xlink" version="1.1" x="0px" y="0px" viewBox="0 0 64 80" style="enable-background:new 0 0 64 64;" xml:space="preserve"><g><path d="M57,13.611L45.44,1H7v57h6.259l-0.696,2.901l5.807-2.485l4.06,4.717L23.661,58h8.677l1.232,5.133l4.06-4.717l5.807,2.485   L42.741,58H57V13.611z M46,4.571L53.727,13H46V4.571z M21.396,58.867l-2.466-2.866l-3.494,1.495l3.423-14.264   c0.5,0.495,1.045,0.943,1.619,1.352l-2.038,8.492l1.944,0.467l1.893-7.887c0.669,0.33,1.366,0.607,2.093,0.819L21.396,58.867z    M27.414,39.828l-5-5l1.414-1.414L27.414,37L45,19.414l1.414,1.414L27.414,39.828z M27.414,34.172l-3.586-3.586l-4.242,4.242   l7.828,7.828l11.268-11.268C38.89,32.239,39,33.113,39,34c0,6.065-4.935,11-11,11s-11-4.935-11-11s4.935-11,11-11   c2.825,0,5.527,1.096,7.562,3.024L27.414,34.172z M24.141,56l2.188-9.12C26.878,46.951,27.433,47,28,47   c0.567,0,1.122-0.049,1.67-0.12L31.859,56H24.141z M37.069,56.001l-2.466,2.866l-2.974-12.392c0.727-0.212,1.424-0.49,2.092-0.819   l1.893,7.887l1.944-0.467l-2.038-8.492c0.574-0.409,1.119-0.857,1.619-1.352l3.423,14.264L37.069,56.001z M42.261,56l-3.524-14.683   C40.163,39.231,41,36.712,41,34c0-1.447-0.24-2.866-0.706-4.223l8.948-8.948L45,16.586l-8.026,8.026C34.565,22.31,31.357,21,28,21   c-7.168,0-13,5.832-13,13c0,2.712,0.837,5.231,2.263,7.317L13.739,56H9V3h35v12h11v41H42.261z"/><rect x="11" y="5" width="31" height="2"/><rect x="15" y="9" width="27" height="2"/><rect x="40" y="13" width="2" height="2"/><rect x="11" y="13" width="27" height="2"/><rect x="11" y="9" width="2" height="2"/></g><text x="0" y="79" fill="#000000" font-size="5px" font-weight="bold" font-family="'Helvetica Neue', Helvetica, Arial-Unicode, Arial, Sans-serif">Created by Eucalyp</text><text x="0" y="84" fill="#000000" font-size="5px" font-weight="bold" font-family="'Helvetica Neue', Helvetica, Arial-Unicode, Arial, Sans-serif">from the Noun Project</text></svg>